<svg width="48" height="48" viewBox="0 0 48 48" fill="none" xmlns="http://www.w3.org/2000/svg">
<rect width="48" height="48" fill="#323238"/>
<path d="M23.4983 11.2602C16.0446 11.2602 10 16.8789 10 23.8102C10 29.3539 13.8678 34.0571 19.234 35.718C19.909 35.8336 20.1554 35.4461 20.1554 35.1133C20.1554 34.8149 20.1436 34.0258 20.1368 32.9789C16.3821 33.7368 15.589 31.2961 15.589 31.2961C14.9764 29.8461 14.0905 29.4602 14.0905 29.4602C12.8637 28.6821 14.1816 28.6977 14.1816 28.6977C15.5367 28.7868 16.2488 29.9914 16.2488 29.9914C17.4537 31.9086 19.4095 31.3555 20.179 31.0336C20.3005 30.2227 20.6498 29.6696 21.0362 29.3555C18.0392 29.0383 14.887 27.9618 14.887 23.1539C14.887 21.7836 15.4135 20.6633 16.2775 19.7852C16.1374 19.468 15.6751 18.1914 16.4091 16.4649C16.4091 16.4649 17.5431 16.1274 20.1216 17.7508C21.1983 17.4727 22.3525 17.3336 23.5017 17.3289C24.6475 17.3352 25.8034 17.4727 26.8817 17.7524C29.4586 16.1289 30.5909 16.4664 30.5909 16.4664C31.3266 18.1946 30.8642 19.4696 30.7259 19.7868C31.5916 20.6649 32.113 21.7852 32.113 23.1555C32.113 27.9758 28.9574 29.0368 25.9502 29.3477C26.4346 29.7352 26.8666 30.5008 26.8666 31.6711C26.8666 33.3493 26.8497 34.7024 26.8497 35.1133C26.8497 35.4493 27.0927 35.8399 27.7778 35.7164C33.1356 34.0539 37 29.3524 37 23.8102C37 16.8789 30.9554 11.2602 23.4983 11.2602Z" fill="white"/>
</svg>
